<svg width="1440" height="892" viewBox="0 0 1440 892" fill="none" xmlns="http://www.w3.org/2000/svg">
<path d="M327.574 169.389C229.613 173.18 172.339 171.043 76.3512 161.74C45.0209 158.704 -2.90918 152.28 -2.90918 152.28V892H1440V0.108802C1440 0.108802 1304.77 -1.15607 1219.83 4.93963C1114.83 12.4753 1052.51 17.6639 959.803 40.3657C836.509 70.5584 793.402 97.3293 686.795 125.509C562.314 158.414 477.134 163.602 327.574 169.389Z" fill="#333333"/>
<path d="M156.802 473.024C131.65 486.464 103.522 493.184 72.4179 493.184C56.6739 493.184 42.1779 490.688 28.9299 485.696C15.8739 480.512 4.54586 473.312 -5.05414 464.096C-14.4621 454.688 -21.8541 443.456 -27.2301 430.4C-32.6061 417.344 -35.2941 402.848 -35.2941 386.912C-35.2941 370.592 -32.6061 355.808 -27.2301 342.56C-21.8541 329.12 -14.4621 317.696 -5.05414 308.288C4.54586 298.88 15.8739 291.68 28.9299 286.688C42.1779 281.504 56.6739 278.912 72.4179 278.912C87.9699 278.912 102.562 280.832 116.194 284.672C129.826 288.32 142.018 294.944 152.77 304.544L125.986 331.616C119.458 325.28 111.49 320.384 102.082 316.928C92.8659 313.472 83.0739 311.744 72.7059 311.744C62.1459 311.744 52.5459 313.664 43.9059 317.504C35.4579 321.152 28.1619 326.336 22.0179 333.056C15.8739 339.584 11.0739 347.264 7.61786 356.096C4.35386 364.928 2.72186 374.432 2.72186 384.608C2.72186 395.552 4.35386 405.632 7.61786 414.848C11.0739 424.064 15.8739 432.032 22.0179 438.752C28.1619 445.472 35.4579 450.752 43.9059 454.592C52.5459 458.432 62.1459 460.352 72.7059 460.352C81.9219 460.352 90.5619 459.488 98.6259 457.76C106.882 456.032 114.178 453.344 120.514 449.696V401.6H78.7539V368.768H156.802V473.024ZM224.286 430.976C225.438 441.344 229.47 449.408 236.382 455.168C243.294 460.928 251.646 463.808 261.438 463.808C270.078 463.808 277.278 462.08 283.038 458.624C288.99 454.976 294.174 450.464 298.59 445.088L323.358 463.808C315.294 473.792 306.27 480.896 296.286 485.12C286.302 489.344 275.838 491.456 264.894 491.456C254.526 491.456 244.734 489.728 235.518 486.272C226.302 482.816 218.334 477.92 211.614 471.584C204.894 465.248 199.518 457.664 195.486 448.832C191.646 439.808 189.726 429.824 189.726 418.88C189.726 407.936 191.646 398.048 195.486 389.216C199.518 380.192 204.894 372.512 211.614 366.176C218.334 359.84 226.302 354.944 235.518 351.488C244.734 348.032 254.526 346.304 264.894 346.304C274.494 346.304 283.23 348.032 291.102 351.488C299.166 354.752 305.982 359.552 311.55 365.888C317.31 372.224 321.726 380.096 324.798 389.504C328.062 398.72 329.694 409.376 329.694 421.472V430.976H224.286ZM295.134 405.056C294.942 394.88 291.774 386.912 285.63 381.152C279.486 375.2 270.942 372.224 259.998 372.224C249.63 372.224 241.374 375.2 235.23 381.152C229.278 387.104 225.63 395.072 224.286 405.056H295.134ZM345.885 379.136V349.76H374.397V309.728H408.957V349.76H446.973V379.136H408.957V439.616C408.957 446.528 410.205 452 412.701 456.032C415.389 460.064 420.573 462.08 428.253 462.08C431.325 462.08 434.685 461.792 438.333 461.216C441.981 460.448 444.861 459.296 446.973 457.76V486.848C443.325 488.576 438.813 489.728 433.437 490.304C428.253 491.072 423.645 491.456 419.613 491.456C410.397 491.456 402.813 490.4 396.861 488.288C391.101 486.368 386.493 483.392 383.037 479.36C379.773 475.136 377.469 469.952 376.125 463.808C374.973 457.664 374.397 450.56 374.397 442.496V379.136H345.885ZM559.745 349.76H594.305V488H559.745V349.76ZM554.849 302.816C554.849 297.248 556.865 292.448 560.897 288.416C565.121 284.192 570.401 282.08 576.737 282.08C583.073 282.08 588.353 284.096 592.577 288.128C596.993 291.968 599.201 296.864 599.201 302.816C599.201 308.768 596.993 313.76 592.577 317.792C588.353 321.632 583.073 323.552 576.737 323.552C570.401 323.552 565.121 321.536 560.897 317.504C556.865 313.28 554.849 308.384 554.849 302.816ZM633.982 349.76H666.814V371.936H667.39C670.654 365.024 675.646 359.072 682.366 354.08C689.086 348.896 698.206 346.304 709.726 346.304C718.942 346.304 726.718 347.84 733.054 350.912C739.582 353.984 744.862 358.016 748.894 363.008C752.926 368 755.806 373.76 757.534 380.288C759.262 386.816 760.126 393.632 760.126 400.736V488H725.566V418.016C725.566 414.176 725.374 409.952 724.99 405.344C724.606 400.544 723.55 396.128 721.822 392.096C720.286 387.872 717.79 384.416 714.334 381.728C710.878 378.848 706.174 377.408 700.222 377.408C694.462 377.408 689.566 378.368 685.534 380.288C681.694 382.208 678.43 384.8 675.742 388.064C673.246 391.328 671.422 395.072 670.27 399.296C669.118 403.52 668.542 407.936 668.542 412.544V488H633.982V349.76ZM-8.91177 638.136V608.76H19.6002V568.728H54.1602V608.76H92.1762V638.136H54.1602V698.616C54.1602 705.528 55.4082 711 57.9042 715.032C60.5922 719.064 65.7762 721.08 73.4562 721.08C76.5282 721.08 79.8882 720.792 83.5362 720.216C87.1842 719.448 90.0642 718.296 92.1762 716.76V745.848C88.5282 747.576 84.0162 748.728 78.6402 749.304C73.4562 750.072 68.8482 750.456 64.8162 750.456C55.6002 750.456 48.0162 749.4 42.0642 747.288C36.3042 745.368 31.6962 742.392 28.2402 738.36C24.9762 734.136 22.6722 728.952 21.3282 722.808C20.1762 716.664 19.6002 709.56 19.6002 701.496V638.136H-8.91177ZM112.242 677.88C112.242 666.936 114.162 657.048 118.002 648.216C122.034 639.192 127.41 631.512 134.13 625.176C140.85 618.84 148.818 613.944 158.034 610.488C167.25 607.032 177.042 605.304 187.41 605.304C197.778 605.304 207.57 607.032 216.786 610.488C226.002 613.944 233.97 618.84 240.69 625.176C247.41 631.512 252.69 639.192 256.53 648.216C260.562 657.048 262.578 666.936 262.578 677.88C262.578 688.824 260.562 698.808 256.53 707.832C252.69 716.664 247.41 724.248 240.69 730.584C233.97 736.92 226.002 741.816 216.786 745.272C207.57 748.728 197.778 750.456 187.41 750.456C177.042 750.456 167.25 748.728 158.034 745.272C148.818 741.816 140.85 736.92 134.13 730.584C127.41 724.248 122.034 716.664 118.002 707.832C114.162 698.808 112.242 688.824 112.242 677.88ZM146.802 677.88C146.802 683.256 147.666 688.44 149.394 693.432C151.314 698.424 154.002 702.84 157.458 706.68C161.106 710.52 165.426 713.592 170.418 715.896C175.41 718.2 181.074 719.352 187.41 719.352C193.746 719.352 199.41 718.2 204.402 715.896C209.394 713.592 213.618 710.52 217.074 706.68C220.722 702.84 223.41 698.424 225.138 693.432C227.058 688.44 228.018 683.256 228.018 677.88C228.018 672.504 227.058 667.32 225.138 662.328C223.41 657.336 220.722 652.92 217.074 649.08C213.618 645.24 209.394 642.168 204.402 639.864C199.41 637.56 193.746 636.408 187.41 636.408C181.074 636.408 175.41 637.56 170.418 639.864C165.426 642.168 161.106 645.24 157.458 649.08C154.002 652.92 151.314 657.336 149.394 662.328C147.666 667.32 146.802 672.504 146.802 677.88ZM421.079 747H388.247V724.824H387.671C384.407 731.736 379.415 737.784 372.695 742.968C365.975 747.96 356.855 750.456 345.335 750.456C336.119 750.456 328.247 749.016 321.719 746.136C315.383 743.064 310.199 739.032 306.167 734.04C302.135 728.856 299.255 723 297.527 716.472C295.799 709.944 294.935 703.128 294.935 696.024V608.76H329.495V678.744C329.495 682.584 329.687 686.904 330.071 691.704C330.455 696.312 331.415 700.728 332.951 704.952C334.679 708.984 337.175 712.44 340.439 715.32C343.895 718.008 348.695 719.352 354.839 719.352C360.599 719.352 365.399 718.392 369.239 716.472C373.271 714.552 376.535 711.96 379.031 708.696C381.719 705.432 383.639 701.688 384.791 697.464C385.943 693.24 386.519 688.824 386.519 684.216V608.76H421.079V747ZM554.774 650.232C550.742 646.008 546.518 642.648 542.102 640.152C537.686 637.656 533.174 636.408 528.566 636.408C522.23 636.408 516.566 637.56 511.574 639.864C506.582 642.168 502.262 645.24 498.614 649.08C495.158 652.92 492.47 657.336 490.55 662.328C488.822 667.32 487.958 672.504 487.958 677.88C487.958 683.256 488.822 688.44 490.55 693.432C492.47 698.424 495.158 702.84 498.614 706.68C502.262 710.52 506.582 713.592 511.574 715.896C516.566 718.2 522.23 719.352 528.566 719.352C533.942 719.352 538.934 718.296 543.542 716.184C548.15 713.88 552.086 710.616 555.35 706.392L578.39 731.16C574.934 734.616 570.902 737.592 566.294 740.088C561.878 742.584 557.366 744.6 552.758 746.136C548.15 747.672 543.734 748.728 539.51 749.304C535.286 750.072 531.638 750.456 528.566 750.456C518.198 750.456 508.406 748.728 499.19 745.272C489.974 741.816 482.006 736.92 475.286 730.584C468.566 724.248 463.19 716.664 459.158 707.832C455.318 698.808 453.398 688.824 453.398 677.88C453.398 666.936 455.318 657.048 459.158 648.216C463.19 639.192 468.566 631.512 475.286 625.176C482.006 618.84 489.974 613.944 499.19 610.488C508.406 607.032 518.198 605.304 528.566 605.304C537.398 605.304 546.23 607.032 555.062 610.488C564.086 613.752 571.958 619.032 578.678 626.328L554.774 650.232ZM633.807 628.056H634.383C637.071 622.296 641.775 617.112 648.495 612.504C655.407 607.704 664.239 605.304 674.991 605.304C684.207 605.304 691.983 606.84 698.319 609.912C704.847 612.984 710.127 617.016 714.159 622.008C718.191 627 721.071 632.76 722.799 639.288C724.527 645.816 725.391 652.632 725.391 659.736V747H690.831V677.016C690.831 673.176 690.639 668.952 690.255 664.344C689.871 659.544 688.815 655.128 687.087 651.096C685.551 646.872 683.055 643.416 679.599 640.728C676.143 637.848 671.439 636.408 665.487 636.408C659.727 636.408 654.831 637.368 650.799 639.288C646.959 641.208 643.695 643.8 641.007 647.064C638.511 650.328 636.687 654.072 635.535 658.296C634.383 662.52 633.807 666.936 633.807 671.544V747H599.247V529.272H633.807V628.056Z" fill="#2D2D2D"/>
</svg>
