<svg width="375" height="627" viewBox="0 0 375 627" fill="none" xmlns="http://www.w3.org/2000/svg">
<path d="M86.0048 55.2155C60.5114 56.4511 45.6066 55.7546 20.6267 52.7222C12.4733 51.7325 0 49.6384 0 49.6384L0.498013 627H375.502L375.004 0.035466C375.004 0.035466 340.31 -0.376842 318.206 1.61016C290.88 4.06657 274.661 5.75788 250.536 13.1579C218.45 22.9998 207.232 31.7263 179.488 40.912C147.093 51.6378 124.926 53.3291 86.0048 55.2155Z" fill="#333333"/>
<path d="M76.0709 233.992C62.6209 241.179 47.5795 244.772 30.9466 244.772C22.5275 244.772 14.7758 243.437 7.69144 240.768C0.709761 237.996 -5.34788 234.146 -10.4815 229.217C-15.5124 224.186 -19.4653 218.18 -22.3401 211.198C-25.2149 204.217 -26.6523 196.465 -26.6523 187.943C-26.6523 179.216 -25.2149 171.31 -22.3401 164.226C-19.4653 157.039 -15.5124 150.93 -10.4815 145.899C-5.34788 140.868 0.709761 137.018 7.69144 134.349C14.7758 131.576 22.5275 130.19 30.9466 130.19C39.263 130.19 47.0661 131.217 54.3558 133.271C61.6455 135.221 68.1651 138.763 73.9148 143.897L59.5921 158.374C56.1012 154.986 51.8403 152.367 46.8094 150.519C41.8812 148.671 36.6449 147.747 31.1006 147.747C25.4537 147.747 20.3201 148.774 15.6998 150.827C11.1823 152.778 7.28076 155.55 3.99526 159.144C0.709761 162.635 -1.85703 166.742 -3.70513 171.464C-5.45055 176.187 -6.32326 181.27 -6.32326 186.711C-6.32326 192.564 -5.45055 197.954 -3.70513 202.882C-1.85703 207.81 0.709761 212.071 3.99526 215.665C7.28076 219.258 11.1823 222.082 15.6998 224.135C20.3201 226.189 25.4537 227.215 31.1006 227.215C36.0289 227.215 40.6491 226.753 44.9613 225.829C49.3762 224.905 53.2777 223.468 56.6659 221.517V195.798H34.3348V178.241H76.0709V233.992ZM112.158 211.506C112.774 217.051 114.93 221.363 118.626 224.443C122.323 227.523 126.789 229.063 132.025 229.063C136.645 229.063 140.495 228.139 143.576 226.291C146.758 224.34 149.531 221.928 151.892 219.053L165.137 229.063C160.824 234.402 155.999 238.201 150.66 240.46C145.321 242.719 139.725 243.848 133.873 243.848C128.329 243.848 123.093 242.924 118.164 241.076C113.236 239.228 108.975 236.61 105.382 233.222C101.788 229.833 98.9134 225.778 96.7572 221.055C94.7038 216.229 93.6771 210.89 93.6771 205.038C93.6771 199.186 94.7038 193.898 96.7572 189.175C98.9134 184.35 101.788 180.243 105.382 176.855C108.975 173.467 113.236 170.848 118.164 169C123.093 167.152 128.329 166.228 133.873 166.228C139.007 166.228 143.678 167.152 147.888 169C152.2 170.746 155.845 173.313 158.822 176.701C161.903 180.089 164.264 184.298 165.907 189.329C167.652 194.258 168.525 199.956 168.525 206.424V211.506H112.158ZM150.044 197.646C149.941 192.204 148.247 187.943 144.962 184.863C141.676 181.68 137.107 180.089 131.255 180.089C125.711 180.089 121.296 181.68 118.01 184.863C114.827 188.046 112.877 192.307 112.158 197.646H150.044ZM177.183 183.785V168.076H192.43V146.669H210.911V168.076H231.24V183.785H210.911V216.127C210.911 219.823 211.578 222.749 212.913 224.905C214.35 227.061 217.122 228.139 221.229 228.139C222.872 228.139 224.669 227.985 226.619 227.677C228.57 227.267 230.11 226.651 231.24 225.829V241.384C229.289 242.308 226.876 242.924 224.001 243.232C221.229 243.643 218.765 243.848 216.609 243.848C211.681 243.848 207.625 243.283 204.442 242.154C201.362 241.127 198.898 239.536 197.05 237.38C195.305 235.121 194.072 232.349 193.354 229.063C192.738 225.778 192.43 221.979 192.43 217.667V183.785H177.183ZM291.545 168.076H310.025V242H291.545V168.076ZM288.926 142.973C288.926 139.996 290.004 137.429 292.161 135.273C294.419 133.014 297.243 131.884 300.631 131.884C304.019 131.884 306.843 132.963 309.101 135.119C311.463 137.172 312.644 139.79 312.644 142.973C312.644 146.156 311.463 148.825 309.101 150.981C306.843 153.035 304.019 154.062 300.631 154.062C297.243 154.062 294.419 152.984 292.161 150.827C290.004 148.569 288.926 145.951 288.926 142.973ZM331.242 168.076H348.799V179.935H349.107C350.853 176.239 353.522 173.056 357.116 170.386C360.709 167.614 365.586 166.228 371.746 166.228C376.675 166.228 380.833 167.05 384.221 168.692C387.712 170.335 390.535 172.491 392.692 175.161C394.848 177.83 396.388 180.91 397.312 184.401C398.236 187.892 398.698 191.537 398.698 195.336V242H380.217V204.576C380.217 202.523 380.114 200.264 379.909 197.8C379.704 195.233 379.139 192.872 378.215 190.715C377.393 188.457 376.059 186.609 374.211 185.171C372.362 183.631 369.847 182.861 366.664 182.861C363.584 182.861 360.966 183.374 358.81 184.401C356.756 185.428 355.011 186.814 353.574 188.559C352.239 190.305 351.263 192.307 350.647 194.566C350.031 196.824 349.723 199.186 349.723 201.65V242H331.242V168.076ZM-12.5443 322.785V307.076H2.70245V285.669H21.1834V307.076H41.5124V322.785H21.1834V355.127C21.1834 358.823 21.8507 361.749 23.1855 363.905C24.6229 366.061 27.395 367.139 31.5019 367.139C33.1446 367.139 34.9414 366.985 36.8922 366.677C38.8429 366.267 40.383 365.651 41.5124 364.829V380.384C39.5616 381.308 37.1488 381.924 34.274 382.232C31.5019 382.643 29.0378 382.848 26.8817 382.848C21.9534 382.848 17.8979 382.283 14.7151 381.154C11.6349 380.127 9.17077 378.536 7.32268 376.38C5.57726 374.121 4.3452 371.349 3.6265 368.063C3.01047 364.778 2.70245 360.979 2.70245 356.667V322.785H-12.5443ZM52.2424 344.038C52.2424 338.186 53.2691 332.898 55.3226 328.175C57.4787 323.35 60.3535 319.243 63.947 315.855C67.5405 312.467 71.8014 309.848 76.7296 308C81.6579 306.152 86.8941 305.228 92.4384 305.228C97.9827 305.228 103.219 306.152 108.147 308C113.075 309.848 117.336 312.467 120.93 315.855C124.523 319.243 127.347 323.35 129.4 328.175C131.556 332.898 132.634 338.186 132.634 344.038C132.634 349.89 131.556 355.229 129.4 360.055C127.347 364.778 124.523 368.833 120.93 372.222C117.336 375.61 113.075 378.228 108.147 380.076C103.219 381.924 97.9827 382.848 92.4384 382.848C86.8941 382.848 81.6579 381.924 76.7296 380.076C71.8014 378.228 67.5405 375.61 63.947 372.222C60.3535 368.833 57.4787 364.778 55.3226 360.055C53.2691 355.229 52.2424 349.89 52.2424 344.038ZM70.7233 344.038C70.7233 346.913 71.1854 349.685 72.1094 352.355C73.1361 355.024 74.5735 357.385 76.4216 359.439C78.3724 361.492 80.6825 363.135 83.352 364.367C86.0214 365.599 89.0503 366.215 92.4384 366.215C95.8266 366.215 98.8554 365.599 101.525 364.367C104.194 363.135 106.453 361.492 108.301 359.439C110.252 357.385 111.689 355.024 112.613 352.355C113.64 349.685 114.154 346.913 114.154 344.038C114.154 341.163 113.64 338.391 112.613 335.722C111.689 333.052 110.252 330.691 108.301 328.637C106.453 326.584 104.194 324.941 101.525 323.709C98.8554 322.477 95.8266 321.861 92.4384 321.861C89.0503 321.861 86.0214 322.477 83.352 323.709C80.6825 324.941 78.3724 326.584 76.4216 328.637C74.5735 330.691 73.1361 333.052 72.1094 335.722C71.1854 338.391 70.7233 341.163 70.7233 344.038ZM217.393 381H199.836V369.141H199.528C197.783 372.838 195.113 376.072 191.52 378.844C187.926 381.513 183.049 382.848 176.889 382.848C171.961 382.848 167.751 382.078 164.26 380.538C160.872 378.895 158.1 376.739 155.944 374.07C153.788 371.298 152.248 368.166 151.324 364.675C150.399 361.184 149.937 357.539 149.937 353.741V307.076H168.418V344.5C168.418 346.554 168.521 348.864 168.726 351.431C168.932 353.895 169.445 356.256 170.266 358.515C171.191 360.671 172.525 362.519 174.271 364.059C176.119 365.497 178.686 366.215 181.971 366.215C185.051 366.215 187.618 365.702 189.671 364.675C191.828 363.648 193.573 362.262 194.908 360.517C196.345 358.772 197.372 356.769 197.988 354.511C198.604 352.252 198.912 349.89 198.912 347.426V307.076H217.393V381ZM288.886 329.253C286.73 326.995 284.471 325.198 282.11 323.863C279.748 322.528 277.336 321.861 274.871 321.861C271.483 321.861 268.454 322.477 265.785 323.709C263.115 324.941 260.805 326.584 258.855 328.637C257.007 330.691 255.569 333.052 254.542 335.722C253.618 338.391 253.156 341.163 253.156 344.038C253.156 346.913 253.618 349.685 254.542 352.355C255.569 355.024 257.007 357.385 258.855 359.439C260.805 361.492 263.115 363.135 265.785 364.367C268.454 365.599 271.483 366.215 274.871 366.215C277.746 366.215 280.416 365.651 282.88 364.521C285.344 363.289 287.449 361.544 289.194 359.285L301.515 372.53C299.667 374.378 297.511 375.969 295.046 377.304C292.685 378.639 290.272 379.717 287.808 380.538C285.344 381.359 282.982 381.924 280.724 382.232C278.465 382.643 276.514 382.848 274.871 382.848C269.327 382.848 264.091 381.924 259.163 380.076C254.234 378.228 249.973 375.61 246.38 372.222C242.786 368.833 239.912 364.778 237.756 360.055C235.702 355.229 234.675 349.89 234.675 344.038C234.675 338.186 235.702 332.898 237.756 328.175C239.912 323.35 242.786 319.243 246.38 315.855C249.973 312.467 254.234 309.848 259.163 308C264.091 306.152 269.327 305.228 274.871 305.228C279.594 305.228 284.317 306.152 289.04 308C293.866 309.746 298.075 312.569 301.669 316.471L288.886 329.253ZM331.149 317.395H331.457C332.895 314.315 335.41 311.543 339.004 309.078C342.7 306.512 347.423 305.228 353.172 305.228C358.101 305.228 362.259 306.05 365.647 307.692C369.138 309.335 371.961 311.491 374.117 314.161C376.273 316.83 377.814 319.91 378.738 323.401C379.662 326.892 380.124 330.537 380.124 334.336V381H361.643V343.576C361.643 341.523 361.54 339.264 361.335 336.8C361.129 334.233 360.565 331.872 359.641 329.715C358.819 327.457 357.485 325.609 355.636 324.171C353.788 322.631 351.273 321.861 348.09 321.861C345.01 321.861 342.392 322.374 340.236 323.401C338.182 324.428 336.437 325.814 334.999 327.559C333.665 329.305 332.689 331.307 332.073 333.566C331.457 335.824 331.149 338.186 331.149 340.65V381H312.668V264.57H331.149V317.395Z" fill="#2D2D2D"/>
</svg>
