<svg width="375" height="531" viewBox="0 0 375 531" fill="none" xmlns="http://www.w3.org/2000/svg">
<path d="M84.6099 55.2155C59.0176 56.4511 44.055 55.7546 18.9782 52.7222C10.7932 51.7325 -1.72845 49.6384 -1.72845 49.6384L-1.33975 531H375.119L374.73 0.035466C374.73 0.035466 339.902 -0.376842 317.711 1.61016C290.279 4.06657 273.998 5.75788 249.779 13.1579C217.569 22.9998 206.307 31.7263 178.456 40.912C145.935 51.6378 123.682 53.3291 84.6099 55.2155Z" fill="#333333"/>
<path d="M11.5917 117.453H23.5304L56.9367 195H41.1646L33.9357 177.256H0.310265L-6.69959 195H-22.1432L11.5917 117.453ZM29.1164 165.427L17.1777 133.883L5.02001 165.427H29.1164ZM105.971 187.114H105.752C103.853 190.327 101.297 192.663 98.0845 194.124C94.8717 195.584 91.4033 196.314 87.6793 196.314C83.5902 196.314 79.9392 195.621 76.7264 194.233C73.5866 192.773 70.8848 190.801 68.6212 188.319C66.3576 185.836 64.6417 182.915 63.4734 179.556C62.3051 176.198 61.7209 172.583 61.7209 168.713C61.7209 164.843 62.3416 161.229 63.5829 157.87C64.8242 154.511 66.5402 151.59 68.7308 149.107C70.9944 146.625 73.6961 144.69 76.8359 143.302C79.9757 141.842 83.4077 141.112 87.1316 141.112C89.6143 141.112 91.8049 141.367 93.7034 141.878C95.6019 142.39 97.2813 143.047 98.7417 143.85C100.202 144.653 101.443 145.529 102.466 146.479C103.488 147.355 104.328 148.231 104.985 149.107H105.313V112.196H118.457V195H105.971V187.114ZM74.8644 168.713C74.8644 170.758 75.193 172.729 75.8502 174.628C76.5803 176.526 77.6026 178.206 78.917 179.666C80.3043 181.126 81.9473 182.295 83.8458 183.171C85.7443 184.047 87.8983 184.485 90.308 184.485C92.7176 184.485 94.8717 184.047 96.7702 183.171C98.6687 182.295 100.275 181.126 101.589 179.666C102.977 178.206 103.999 176.526 104.656 174.628C105.386 172.729 105.752 170.758 105.752 168.713C105.752 166.669 105.386 164.697 104.656 162.798C103.999 160.9 102.977 159.221 101.589 157.76C100.275 156.3 98.6687 155.131 96.7702 154.255C94.8717 153.379 92.7176 152.941 90.308 152.941C87.8983 152.941 85.7443 153.379 83.8458 154.255C81.9473 155.131 80.3043 156.3 78.917 157.76C77.6026 159.221 76.5803 160.9 75.8502 162.798C75.193 164.697 74.8644 166.669 74.8644 168.713ZM174.961 187.114H174.742C172.843 190.327 170.288 192.663 167.075 194.124C163.862 195.584 160.394 196.314 156.67 196.314C152.581 196.314 148.93 195.621 145.717 194.233C142.577 192.773 139.875 190.801 137.612 188.319C135.348 185.836 133.632 182.915 132.464 179.556C131.295 176.198 130.711 172.583 130.711 168.713C130.711 164.843 131.332 161.229 132.573 157.87C133.815 154.511 135.531 151.59 137.721 149.107C139.985 146.625 142.687 144.69 145.826 143.302C148.966 141.842 152.398 141.112 156.122 141.112C158.605 141.112 160.795 141.367 162.694 141.878C164.592 142.39 166.272 143.047 167.732 143.85C169.193 144.653 170.434 145.529 171.456 146.479C172.478 147.355 173.318 148.231 173.975 149.107H174.304V112.196H187.447V195H174.961V187.114ZM143.855 168.713C143.855 170.758 144.183 172.729 144.841 174.628C145.571 176.526 146.593 178.206 147.907 179.666C149.295 181.126 150.938 182.295 152.836 183.171C154.735 184.047 156.889 184.485 159.298 184.485C161.708 184.485 163.862 184.047 165.761 183.171C167.659 182.295 169.266 181.126 170.58 179.666C171.967 178.206 172.99 176.526 173.647 174.628C174.377 172.729 174.742 170.758 174.742 168.713C174.742 166.669 174.377 164.697 173.647 162.798C172.99 160.9 171.967 159.221 170.58 157.76C169.266 156.3 167.659 155.131 165.761 154.255C163.862 153.379 161.708 152.941 159.298 152.941C156.889 152.941 154.735 153.379 152.836 154.255C150.938 155.131 149.295 156.3 147.907 157.76C146.593 159.221 145.571 160.9 144.841 162.798C144.183 164.697 143.855 166.669 143.855 168.713ZM202.33 142.426H215.474V150.75H215.693C217.153 147.683 219.234 145.31 221.936 143.631C224.638 141.951 227.741 141.112 231.246 141.112C232.049 141.112 232.816 141.185 233.546 141.331C234.349 141.477 235.153 141.659 235.956 141.878V154.584C234.861 154.292 233.765 154.073 232.67 153.927C231.648 153.708 230.625 153.598 229.603 153.598C226.536 153.598 224.054 154.182 222.155 155.351C220.33 156.446 218.906 157.724 217.884 159.184C216.934 160.644 216.277 162.105 215.912 163.565C215.62 165.026 215.474 166.121 215.474 166.851V195H202.33V142.426ZM253.491 173.313C253.929 177.256 255.462 180.323 258.091 182.514C260.72 184.704 263.896 185.8 267.62 185.8C270.906 185.8 273.644 185.142 275.835 183.828C278.098 182.441 280.07 180.725 281.749 178.68L291.169 185.8C288.102 189.597 284.67 192.298 280.873 193.905C277.076 195.511 273.096 196.314 268.934 196.314C264.991 196.314 261.267 195.657 257.762 194.343C254.257 193.028 251.227 191.166 248.671 188.757C246.116 186.347 244.071 183.463 242.538 180.104C241.077 176.672 240.347 172.875 240.347 168.713C240.347 164.551 241.077 160.79 242.538 157.432C244.071 154 246.116 151.079 248.671 148.669C251.227 146.26 254.257 144.398 257.762 143.083C261.267 141.769 264.991 141.112 268.934 141.112C272.585 141.112 275.908 141.769 278.901 143.083C281.968 144.325 284.56 146.15 286.678 148.56C288.869 150.969 290.548 153.963 291.716 157.541C292.958 161.046 293.578 165.099 293.578 169.699V173.313H253.491ZM280.435 163.456C280.362 159.586 279.157 156.555 276.82 154.365C274.484 152.101 271.234 150.969 267.072 150.969C263.129 150.969 259.989 152.101 257.653 154.365C255.389 156.628 254.002 159.659 253.491 163.456H280.435ZM333.909 156.993C331.353 153.416 327.921 151.627 323.613 151.627C321.861 151.627 320.145 152.065 318.465 152.941C316.786 153.817 315.946 155.241 315.946 157.213C315.946 158.819 316.64 159.987 318.027 160.717C319.415 161.448 321.167 162.068 323.285 162.579C325.402 163.091 327.666 163.638 330.075 164.222C332.558 164.733 334.858 165.573 336.976 166.742C339.093 167.837 340.846 169.37 342.233 171.342C343.621 173.313 344.314 176.015 344.314 179.447C344.314 182.587 343.621 185.252 342.233 187.443C340.919 189.56 339.166 191.276 336.976 192.59C334.858 193.905 332.449 194.854 329.747 195.438C327.045 196.022 324.343 196.314 321.642 196.314C317.553 196.314 313.792 195.73 310.36 194.562C306.928 193.394 303.862 191.276 301.16 188.209L309.922 179.995C311.602 181.893 313.391 183.463 315.289 184.704C317.261 185.873 319.634 186.457 322.408 186.457C323.358 186.457 324.343 186.347 325.366 186.128C326.388 185.909 327.337 185.544 328.213 185.033C329.09 184.522 329.783 183.901 330.294 183.171C330.879 182.368 331.171 181.455 331.171 180.433C331.171 178.607 330.477 177.256 329.09 176.38C327.702 175.504 325.95 174.81 323.832 174.299C321.715 173.715 319.415 173.204 316.932 172.766C314.522 172.254 312.259 171.488 310.141 170.466C308.024 169.37 306.271 167.873 304.884 165.975C303.496 164.076 302.803 161.448 302.803 158.089C302.803 155.168 303.387 152.649 304.555 150.531C305.797 148.341 307.403 146.552 309.374 145.164C311.346 143.777 313.61 142.755 316.165 142.098C318.721 141.44 321.313 141.112 323.942 141.112C327.447 141.112 330.915 141.732 334.347 142.974C337.779 144.142 340.554 146.187 342.671 149.107L333.909 156.993ZM382.577 156.993C380.021 153.416 376.589 151.627 372.281 151.627C370.528 151.627 368.812 152.065 367.133 152.941C365.454 153.817 364.614 155.241 364.614 157.213C364.614 158.819 365.308 159.987 366.695 160.717C368.082 161.448 369.835 162.068 371.952 162.579C374.07 163.091 376.333 163.638 378.743 164.222C381.226 164.733 383.526 165.573 385.643 166.742C387.761 167.837 389.513 169.37 390.901 171.342C392.288 173.313 392.982 176.015 392.982 179.447C392.982 182.587 392.288 185.252 390.901 187.443C389.586 189.56 387.834 191.276 385.643 192.59C383.526 193.905 381.116 194.854 378.415 195.438C375.713 196.022 373.011 196.314 370.309 196.314C366.22 196.314 362.46 195.73 359.028 194.562C355.596 193.394 352.529 191.276 349.827 188.209L358.59 179.995C360.269 181.893 362.058 183.463 363.957 184.704C365.928 185.873 368.301 186.457 371.076 186.457C372.025 186.457 373.011 186.347 374.033 186.128C375.056 185.909 376.005 185.544 376.881 185.033C377.757 184.522 378.451 183.901 378.962 183.171C379.546 182.368 379.838 181.455 379.838 180.433C379.838 178.607 379.145 177.256 377.757 176.38C376.37 175.504 374.618 174.81 372.5 174.299C370.382 173.715 368.082 173.204 365.6 172.766C363.19 172.254 360.926 171.488 358.809 170.466C356.691 169.37 354.939 167.873 353.551 165.975C352.164 164.076 351.47 161.448 351.47 158.089C351.47 155.168 352.055 152.649 353.223 150.531C354.464 148.341 356.071 146.552 358.042 145.164C360.014 143.777 362.277 142.755 364.833 142.098C367.389 141.44 369.981 141.112 372.609 141.112C376.114 141.112 379.583 141.732 383.015 142.974C386.447 144.142 389.221 146.187 391.339 149.107L382.577 156.993Z" fill="#2D2D2D"/>
</svg>
