<svg width="1251" height="550" viewBox="0 0 1251 550" fill="none" xmlns="http://www.w3.org/2000/svg">
<path d="M286.429 104.444C201.565 106.781 151.949 105.464 68.7935 99.7277C41.652 97.8555 0.129883 93.8945 0.129883 93.8945V550H1250.13V0.0670862C1250.13 0.0670862 1132.98 -0.712822 1059.4 3.04573C968.432 7.69219 914.442 10.8914 834.132 24.8892C727.322 43.5058 689.979 60.0124 597.624 77.3879C489.785 97.6765 415.994 100.876 286.429 104.444Z" fill="#333333"/>
<mask id="mask0" mask-type="alpha" maskUnits="userSpaceOnUse" x="0" y="135" width="902" height="390">
<path d="M206.594 184.764C145.355 185.878 109.552 185.25 49.5477 182.517C29.9623 181.625 0 179.738 0 179.738V525H902V135.032C902 135.032 817.465 134.66 764.367 136.451C698.727 138.665 659.768 140.189 601.816 146.859C524.742 155.729 497.795 163.594 431.152 171.873C353.335 181.54 300.087 183.064 206.594 184.764Z" fill="#333333"/>
</mask>
<g mask="url(#mask0)">
<path d="M118.819 309.905C103.262 318.969 85.8634 323.501 66.6243 323.501C56.886 323.501 47.9196 321.818 39.7252 318.451C31.6495 314.955 24.6427 310.1 18.7047 303.884C12.8855 297.54 8.31319 289.965 4.98792 281.161C1.66264 272.356 0 262.58 0 251.833C0 240.827 1.66264 230.857 4.98792 221.923C8.31319 212.859 12.8855 205.155 18.7047 198.811C24.6427 192.466 31.6495 187.61 39.7252 184.244C47.9196 180.748 56.886 179 66.6243 179C76.2439 179 85.2696 180.295 93.7016 182.884C102.134 185.345 109.675 189.812 116.325 196.286L99.7583 214.543C95.7205 210.27 90.7919 206.968 84.9727 204.637C79.2722 202.307 73.2155 201.141 66.8024 201.141C60.2707 201.141 54.3327 202.436 48.9885 205.026C43.763 207.486 39.2501 210.982 35.4498 215.514C31.6495 219.916 28.6805 225.095 26.5428 231.051C24.5239 237.007 23.5145 243.417 23.5145 250.279C23.5145 257.66 24.5239 264.457 26.5428 270.673C28.6805 276.888 31.6495 282.261 35.4498 286.793C39.2501 291.325 43.763 294.886 48.9885 297.475C54.3327 300.065 60.2707 301.36 66.8024 301.36C72.5029 301.36 77.8471 300.777 82.835 299.612C87.9417 298.446 92.4546 296.633 96.3737 294.173V261.738H70.5434V239.597H118.819V309.905Z" fill="#2D2D2D"/>
<path d="M160.561 281.549C161.274 288.541 163.768 293.979 168.043 297.864C172.318 301.748 177.484 303.69 183.541 303.69C188.885 303.69 193.339 302.525 196.902 300.194C200.583 297.734 203.79 294.691 206.521 291.066L221.841 303.69C216.853 310.423 211.272 315.214 205.096 318.063C198.921 320.911 192.448 322.335 185.679 322.335C179.266 322.335 173.209 321.17 167.509 318.839C161.808 316.509 156.88 313.207 152.723 308.934C148.566 304.661 145.241 299.547 142.747 293.591C140.372 287.505 139.184 280.772 139.184 273.392C139.184 266.011 140.372 259.343 142.747 253.387C145.241 247.301 148.566 242.122 152.723 237.849C156.88 233.576 161.808 230.274 167.509 227.944C173.209 225.613 179.266 224.448 185.679 224.448C191.617 224.448 197.02 225.613 201.89 227.944C206.877 230.145 211.093 233.382 214.537 237.655C218.1 241.928 220.832 247.236 222.732 253.581C224.751 259.796 225.76 266.982 225.76 275.14V281.549H160.561ZM204.383 264.069C204.265 257.207 202.305 251.833 198.505 247.949C194.705 243.935 189.42 241.928 182.65 241.928C176.237 241.928 171.131 243.935 167.33 247.949C163.649 251.963 161.392 257.336 160.561 264.069H204.383Z" fill="#2D2D2D"/>
<path d="M235.775 246.589V226.778H253.411V199.782H274.788V226.778H298.302V246.589H274.788V287.376C274.788 292.037 275.56 295.727 277.104 298.446C278.766 301.165 281.973 302.525 286.723 302.525C288.623 302.525 290.702 302.331 292.958 301.942C295.214 301.424 296.996 300.647 298.302 299.612V319.228C296.046 320.393 293.255 321.17 289.93 321.559C286.723 322.077 283.873 322.335 281.379 322.335C275.678 322.335 270.987 321.623 267.306 320.199C263.743 318.904 260.893 316.897 258.755 314.178C256.736 311.33 255.311 307.834 254.48 303.69C253.767 299.547 253.411 294.756 253.411 289.318V246.589H235.775Z" fill="#2D2D2D"/>
<path d="M368.056 226.778H389.433V320.005H368.056V226.778ZM365.028 195.12C365.028 191.365 366.275 188.128 368.769 185.409C371.382 182.561 374.648 181.136 378.567 181.136C382.486 181.136 385.752 182.496 388.364 185.215C391.096 187.805 392.462 191.106 392.462 195.12C392.462 199.134 391.096 202.501 388.364 205.22C385.752 207.81 382.486 209.104 378.567 209.104C374.648 209.104 371.382 207.745 368.769 205.026C366.275 202.177 365.028 198.875 365.028 195.12Z" fill="#2D2D2D"/>
<path d="M413.975 226.778H434.283V241.734H434.639C436.658 237.072 439.746 233.058 443.902 229.692C448.059 226.196 453.7 224.448 460.826 224.448C466.526 224.448 471.336 225.484 475.255 227.555C479.293 229.627 482.559 232.346 485.053 235.713C487.546 239.079 489.328 242.964 490.397 247.366C491.466 251.768 492 256.365 492 261.156V320.005H470.623V272.809C470.623 270.219 470.504 267.371 470.267 264.263C470.029 261.026 469.376 258.048 468.307 255.329C467.357 252.48 465.813 250.15 463.676 248.337C461.538 246.395 458.628 245.424 454.947 245.424C451.384 245.424 448.356 246.071 445.862 247.366C443.487 248.661 441.468 250.409 439.805 252.61C438.261 254.811 437.133 257.336 436.42 260.185C435.708 263.033 435.352 266.011 435.352 269.119V320.005H413.975V226.778Z" fill="#2D2D2D"/>
<path d="M47.4736 379.302H8.81723V357.16H108.576V379.302H69.9192V494.669H47.4736V379.302Z" fill="#2D2D2D"/>
<path d="M97.8677 448.056C97.8677 440.676 99.0553 434.007 101.43 428.051C103.924 421.966 107.25 416.786 111.406 412.514C115.563 408.241 120.491 404.939 126.192 402.608C131.892 400.278 137.949 399.112 144.362 399.112C150.775 399.112 156.832 400.278 162.532 402.608C168.233 404.939 173.161 408.241 177.318 412.514C181.475 416.786 184.741 421.966 187.116 428.051C189.61 434.007 190.857 440.676 190.857 448.056C190.857 455.437 189.61 462.17 187.116 468.255C184.741 474.211 181.475 479.326 177.318 483.599C173.161 487.872 168.233 491.173 162.532 493.504C156.832 495.835 150.775 497 144.362 497C137.949 497 131.892 495.835 126.192 493.504C120.491 491.173 115.563 487.872 111.406 483.599C107.25 479.326 103.924 474.211 101.43 468.255C99.0553 462.17 97.8677 455.437 97.8677 448.056ZM119.244 448.056C119.244 451.682 119.779 455.178 120.848 458.544C122.035 461.911 123.698 464.889 125.836 467.478C128.092 470.068 130.764 472.14 133.852 473.693C136.94 475.247 140.443 476.024 144.362 476.024C148.281 476.024 151.785 475.247 154.872 473.693C157.96 472.14 160.573 470.068 162.711 467.478C164.967 464.889 166.63 461.911 167.699 458.544C168.886 455.178 169.48 451.682 169.48 448.056C169.48 444.431 168.886 440.935 167.699 437.568C166.63 434.202 164.967 431.224 162.711 428.634C160.573 426.044 157.96 423.973 154.872 422.419C151.785 420.865 148.281 420.088 144.362 420.088C140.443 420.088 136.94 420.865 133.852 422.419C130.764 423.973 128.092 426.044 125.836 428.634C123.698 431.224 122.035 434.202 120.848 437.568C119.779 440.935 119.244 444.431 119.244 448.056Z" fill="#2D2D2D"/>
<path d="M288.896 494.669H268.588V479.714H268.232C266.213 484.376 263.125 488.454 258.969 491.95C254.812 495.317 249.171 497 242.045 497C236.345 497 231.476 496.029 227.438 494.087C223.519 492.015 220.312 489.296 217.818 485.929C215.324 482.433 213.543 478.484 212.474 474.082C211.405 469.679 210.871 465.083 210.871 460.292V401.443H232.248V448.639C232.248 451.228 232.367 454.142 232.604 457.379C232.842 460.486 233.435 463.464 234.385 466.313C235.454 469.032 236.998 471.363 239.017 473.305C241.155 475.118 244.124 476.024 247.924 476.024C251.487 476.024 254.456 475.377 256.831 474.082C259.325 472.787 261.344 471.039 262.888 468.838C264.55 466.637 265.738 464.112 266.451 461.263C267.163 458.415 267.519 455.437 267.519 452.329V401.443H288.896V494.669Z" fill="#2D2D2D"/>
<path d="M371.592 429.411C369.098 426.562 366.485 424.296 363.754 422.613C361.022 420.93 358.232 420.088 355.381 420.088C351.462 420.088 347.959 420.865 344.871 422.419C341.783 423.973 339.111 426.044 336.855 428.634C334.717 431.224 333.054 434.202 331.867 437.568C330.798 440.935 330.264 444.431 330.264 448.056C330.264 451.682 330.798 455.178 331.867 458.544C333.054 461.911 334.717 464.889 336.855 467.478C339.111 470.068 341.783 472.14 344.871 473.693C347.959 475.247 351.462 476.024 355.381 476.024C358.707 476.024 361.794 475.312 364.645 473.888C367.495 472.334 369.929 470.133 371.948 467.284L386.2 483.987C384.062 486.318 381.568 488.325 378.718 490.008C375.986 491.691 373.195 493.051 370.345 494.087C367.495 495.122 364.763 495.835 362.151 496.223C359.538 496.741 357.281 497 355.381 497C348.968 497 342.912 495.835 337.211 493.504C331.511 491.173 326.582 487.872 322.425 483.599C318.269 479.326 314.944 474.211 312.45 468.255C310.074 462.17 308.887 455.437 308.887 448.056C308.887 440.676 310.074 434.007 312.45 428.051C314.944 421.966 318.269 416.786 322.425 412.514C326.582 408.241 331.511 404.939 337.211 402.608C342.912 400.278 348.968 399.112 355.381 399.112C360.844 399.112 366.307 400.278 371.77 402.608C377.352 404.809 382.221 408.37 386.378 413.29L371.592 429.411Z" fill="#2D2D2D"/>
<path d="M420.478 414.456H420.834C422.496 410.571 425.406 407.075 429.563 403.968C433.838 400.731 439.301 399.112 445.952 399.112C451.652 399.112 456.462 400.148 460.381 402.22C464.419 404.292 467.685 407.011 470.179 410.377C472.673 413.744 474.454 417.628 475.523 422.03C476.592 426.433 477.126 431.029 477.126 435.82V494.669H455.749V447.474C455.749 444.884 455.63 442.035 455.393 438.928C455.155 435.691 454.502 432.713 453.433 429.994C452.483 427.145 450.939 424.814 448.802 423.002C446.664 421.059 443.754 420.088 440.073 420.088C436.51 420.088 433.482 420.736 430.988 422.03C428.613 423.325 426.594 425.073 424.931 427.274C423.387 429.476 422.259 432.001 421.546 434.849C420.834 437.698 420.478 440.676 420.478 443.783V494.669H399.101V347.838H420.478V414.456Z" fill="#2D2D2D"/>
</g>
</svg>
